<svg width="95" height="22" viewBox="0 0 95 22" fill="none" xmlns="http://www.w3.org/2000/svg">
<path d="M7.35 7.5L7.725 0V11.25L7.35 18.75V7.5Z" fill="#27AE60"/>
<path d="M6.53846 7.50001H8.46154V18.75H6.53846V7.50001Z" fill="#27AE60"/>
<path d="M8.46154 8.17499L12.3077 1.12499V11.7L8.46154 18.75V8.17499Z" fill="#27AE60"/>
<path d="M6.53846 8.17499L2.69231 1.12499V11.7L6.53846 18.75V8.17499Z" fill="#27AE60"/>
<path d="M6.53846 7.50001L0 3.56251V15L6.53846 18.75V7.50001Z" fill="#27AE60"/>
<path d="M8.46154 7.50001L15 3.56251V15L8.46154 18.75V7.50001Z" fill="#27AE60"/>
<path d="M30.605 6.678C30.9563 6.85933 31.132 7.14833 31.132 7.545C31.132 7.783 31.047 8.01533 30.877 8.242C30.6957 8.48 30.4633 8.599 30.18 8.599C29.9873 8.599 29.7947 8.548 29.602 8.446C29.0467 8.18533 28.446 8.055 27.8 8.055C27.0067 8.055 26.3153 8.225 25.726 8.565C25.1367 8.89367 24.6833 9.364 24.366 9.976C24.0487 10.5767 23.89 11.268 23.89 12.05C23.89 13.3873 24.247 14.4017 24.961 15.093C25.6863 15.7843 26.6327 16.13 27.8 16.13C28.4913 16.13 29.092 15.9997 29.602 15.739C29.806 15.6483 29.9873 15.603 30.146 15.603C30.4407 15.603 30.69 15.7277 30.894 15.977C31.064 16.1923 31.149 16.4247 31.149 16.674C31.149 16.8553 31.1037 17.0197 31.013 17.167C30.9223 17.3143 30.792 17.4277 30.622 17.507C29.738 17.949 28.7973 18.17 27.8 18.17C26.6893 18.17 25.6693 17.9377 24.74 17.473C23.8107 16.997 23.0683 16.3 22.513 15.382C21.9577 14.464 21.68 13.3533 21.68 12.05C21.68 10.894 21.9407 9.857 22.462 8.939C22.9947 8.021 23.7257 7.307 24.655 6.797C25.5843 6.27567 26.6327 6.015 27.8 6.015C28.8087 6.015 29.7437 6.236 30.605 6.678Z" fill="#27AE60"/>
<path d="M41.5012 13.461C41.5012 14.3677 41.2972 15.1837 40.8892 15.909C40.4812 16.623 39.9202 17.1783 39.2062 17.575C38.5035 17.9717 37.7272 18.17 36.8772 18.17C36.0159 18.17 35.2339 17.9717 34.5312 17.575C33.8285 17.1783 33.2732 16.623 32.8652 15.909C32.4572 15.1837 32.2532 14.3677 32.2532 13.461C32.2532 12.5543 32.4572 11.744 32.8652 11.03C33.2732 10.3047 33.8285 9.74367 34.5312 9.347C35.2339 8.939 36.0159 8.735 36.8772 8.735C37.7272 8.735 38.5035 8.939 39.2062 9.347C39.9202 9.74367 40.4812 10.3047 40.8892 11.03C41.2972 11.744 41.5012 12.5543 41.5012 13.461ZM39.4612 13.461C39.4612 12.9057 39.3422 12.4127 39.1042 11.982C38.8775 11.54 38.5659 11.2 38.1692 10.962C37.7839 10.724 37.3532 10.605 36.8772 10.605C36.4012 10.605 35.9649 10.724 35.5682 10.962C35.1829 11.2 34.8712 11.54 34.6332 11.982C34.4065 12.4127 34.2932 12.9057 34.2932 13.461C34.2932 14.0163 34.4065 14.5093 34.6332 14.94C34.8712 15.3707 35.1829 15.705 35.5682 15.943C35.9649 16.181 36.4012 16.3 36.8772 16.3C37.3532 16.3 37.7839 16.181 38.1692 15.943C38.5659 15.705 38.8775 15.3707 39.1042 14.94C39.3422 14.5093 39.4612 14.0163 39.4612 13.461Z" fill="#27AE60"/>
<path d="M43.9876 13.801C43.6929 13.801 43.4436 13.7047 43.2396 13.512C43.0469 13.3193 42.9506 13.0757 42.9506 12.781C42.9506 12.4977 43.0469 12.2597 43.2396 12.067C43.4436 11.8743 43.6929 11.778 43.9876 11.778H46.9456C47.2403 11.778 47.4839 11.88 47.6766 12.084C47.8806 12.2767 47.9826 12.5203 47.9826 12.815C47.9826 13.0983 47.8806 13.3363 47.6766 13.529C47.4839 13.7103 47.2403 13.801 46.9456 13.801H43.9876Z" fill="#27AE60"/>
<path d="M54.7228 8.735C55.8448 8.735 56.6212 9.08067 57.0518 9.772C57.4825 10.452 57.6978 11.3983 57.6978 12.611V16.963C57.6978 17.2577 57.6015 17.507 57.4088 17.711C57.2162 17.9037 56.9725 18 56.6778 18C56.3832 18 56.1395 17.9037 55.9468 17.711C55.7542 17.507 55.6578 17.2577 55.6578 16.963V12.611C55.6578 11.9877 55.5332 11.5003 55.2838 11.149C55.0458 10.7863 54.6208 10.605 54.0088 10.605C53.3742 10.605 52.8755 10.7977 52.5128 11.183C52.1615 11.557 51.9858 12.033 51.9858 12.611V16.963C51.9858 17.2577 51.8895 17.507 51.6968 17.711C51.5042 17.9037 51.2605 18 50.9658 18C50.6712 18 50.4275 17.9037 50.2348 17.711C50.0422 17.507 49.9458 17.2577 49.9458 16.963V6.457C49.9458 6.16233 50.0422 5.91867 50.2348 5.726C50.4275 5.522 50.6712 5.42 50.9658 5.42C51.2605 5.42 51.5042 5.522 51.6968 5.726C51.8895 5.91867 51.9858 6.16233 51.9858 6.457V10.214C52.2918 9.806 52.6772 9.46033 53.1418 9.177C53.6178 8.88233 54.1448 8.735 54.7228 8.735Z" fill="#27AE60"/>
<path d="M68.0668 13.24C68.0554 13.512 67.9478 13.733 67.7438 13.903C67.5398 14.073 67.3018 14.158 67.0298 14.158H61.4198C61.5558 14.8267 61.8674 15.3537 62.3548 15.739C62.8421 16.113 63.3918 16.3 64.0038 16.3C64.4684 16.3 64.8311 16.2603 65.0918 16.181C65.3524 16.0903 65.5564 15.9997 65.7038 15.909C65.8624 15.807 65.9701 15.739 66.0268 15.705C66.2308 15.603 66.4234 15.552 66.6048 15.552C66.8428 15.552 67.0468 15.637 67.2168 15.807C67.3868 15.977 67.4718 16.1753 67.4718 16.402C67.4718 16.708 67.3131 16.9857 66.9958 17.235C66.6784 17.4957 66.2534 17.7167 65.7208 17.898C65.1881 18.0793 64.6498 18.17 64.1058 18.17C63.1538 18.17 62.3208 17.9717 61.6068 17.575C60.9041 17.1783 60.3601 16.6343 59.9748 15.943C59.5894 15.2403 59.3968 14.4527 59.3968 13.58C59.3968 12.6053 59.6008 11.7497 60.0088 11.013C60.4168 10.2763 60.9551 9.71533 61.6238 9.33C62.2924 8.93333 63.0064 8.735 63.7658 8.735C64.5138 8.735 65.2164 8.939 65.8738 9.347C66.5424 9.755 67.0751 10.3047 67.4718 10.996C67.8684 11.6873 68.0668 12.4353 68.0668 13.24ZM63.7658 10.605C62.4511 10.605 61.6748 11.2227 61.4368 12.458H65.8908V12.339C65.8454 11.863 65.6131 11.455 65.1938 11.115C64.7744 10.775 64.2984 10.605 63.7658 10.605Z" fill="#27AE60"/>
<path d="M80.2571 8.735C81.3791 8.735 82.1554 9.08067 82.5861 9.772C83.0167 10.452 83.2321 11.3983 83.2321 12.611V16.963C83.2321 17.2577 83.1358 17.507 82.9431 17.711C82.7504 17.9037 82.5068 18 82.2121 18C81.9174 18 81.6738 17.9037 81.4811 17.711C81.2884 17.507 81.1921 17.2577 81.1921 16.963V12.611C81.1921 11.9877 81.0674 11.5003 80.8181 11.149C80.5801 10.7863 80.1551 10.605 79.5431 10.605C78.9084 10.605 78.4098 10.7977 78.0471 11.183C77.6958 11.557 77.5201 12.033 77.5201 12.611V16.963C77.5201 17.2577 77.4238 17.507 77.2311 17.711C77.0384 17.9037 76.7948 18 76.5001 18C76.2054 18 75.9618 17.9037 75.7691 17.711C75.5764 17.507 75.4801 17.2577 75.4801 16.963V12.611C75.4801 11.9877 75.3554 11.5003 75.1061 11.149C74.8681 10.7863 74.4431 10.605 73.8311 10.605C73.1964 10.605 72.6977 10.7977 72.3351 11.183C71.9837 11.557 71.8081 12.033 71.8081 12.611V16.963C71.8081 17.2577 71.7118 17.507 71.5191 17.711C71.3264 17.9037 71.0828 18 70.7881 18C70.4934 18 70.2497 17.9037 70.0571 17.711C69.8644 17.507 69.7681 17.2577 69.7681 16.963V9.942C69.7681 9.64733 69.8644 9.40367 70.0571 9.211C70.2497 9.007 70.4934 8.905 70.7881 8.905C71.0828 8.905 71.3264 9.007 71.5191 9.211C71.7118 9.40367 71.8081 9.64733 71.8081 9.942V10.214C72.1141 9.806 72.4994 9.46033 72.9641 9.177C73.4401 8.88233 73.9671 8.735 74.5451 8.735C75.9731 8.735 76.8854 9.35833 77.2821 10.605C77.5428 10.129 77.9338 9.69833 78.4551 9.313C78.9878 8.92767 79.5884 8.735 80.2571 8.735Z" fill="#27AE60"/>
<path d="M90.149 8.735C90.931 8.735 91.6393 8.939 92.274 9.347C92.9086 9.74367 93.4073 10.299 93.77 11.013C94.144 11.727 94.331 12.5373 94.331 13.444C94.331 14.3507 94.1496 15.1667 93.787 15.892C93.4243 16.606 92.9256 17.167 92.291 17.575C91.6676 17.9717 90.9763 18.17 90.217 18.17C89.673 18.17 89.1573 18.0623 88.67 17.847C88.194 17.6203 87.7973 17.3483 87.48 17.031V20.363C87.48 20.6577 87.3836 20.9013 87.191 21.094C86.9983 21.298 86.7546 21.4 86.46 21.4C86.1653 21.4 85.9216 21.3037 85.729 21.111C85.5363 20.9183 85.44 20.669 85.44 20.363V9.942C85.44 9.64733 85.5363 9.40367 85.729 9.211C85.9216 9.007 86.1653 8.905 86.46 8.905C86.7546 8.905 86.9983 9.007 87.191 9.211C87.3836 9.40367 87.48 9.64733 87.48 9.942V10.01C87.752 9.67 88.1316 9.37533 88.619 9.126C89.1063 8.86533 89.6163 8.735 90.149 8.735ZM89.894 16.3C90.6193 16.3 91.2143 16.028 91.679 15.484C92.1436 14.94 92.376 14.26 92.376 13.444C92.376 12.628 92.1436 11.9537 91.679 11.421C91.2256 10.877 90.6306 10.605 89.894 10.605C89.1573 10.605 88.5566 10.877 88.092 11.421C87.6273 11.9537 87.395 12.628 87.395 13.444C87.395 14.26 87.6273 14.94 88.092 15.484C88.5566 16.028 89.1573 16.3 89.894 16.3Z" fill="#27AE60"/>
</svg>
